<svg width="19" height="23" viewBox="0 0 19 23" fill="none" xmlns="http://www.w3.org/2000/svg">
<path d="M9.00307e-05 14.5836V17.3477C-0.00633363 18.2182 0.331216 19.056 0.939311 19.6788C1.54741 20.3017 2.37685 20.6593 3.24722 20.6738C3.75106 20.6752 4.24833 20.5595 4.6998 20.3358C5.15127 20.1121 5.5446 19.7866 5.84875 19.3849C5.86665 19.3614 5.89152 19.344 5.91983 19.3353C5.94814 19.3267 5.97847 19.3271 6.00651 19.3366C6.03454 19.3462 6.05887 19.3643 6.07605 19.3884C6.09323 19.4125 6.10238 19.4414 6.10221 19.471V19.7101C6.0975 20.1378 6.17707 20.5622 6.33639 20.9592C6.4957 21.3561 6.73163 21.7177 7.03071 22.0235C7.63474 22.641 8.45931 22.9932 9.32304 23.0027C10.1868 23.0122 11.0189 22.6782 11.6364 22.0742C12.2539 21.4702 12.6061 20.6456 12.6156 19.7819V19.471C12.6154 19.4414 12.6246 19.4125 12.6418 19.3884C12.6589 19.3643 12.6833 19.3462 12.7113 19.3366C12.7393 19.3271 12.7697 19.3267 12.798 19.3353C12.8263 19.344 12.8512 19.3614 12.8691 19.3849C13.1733 19.7865 13.5667 20.1119 14.0181 20.3355C14.4696 20.5592 14.9668 20.675 15.4706 20.6738C16.341 20.6593 17.1704 20.3017 17.7785 19.6788C18.3866 19.056 18.7241 18.2182 18.7177 17.3477V14.5836C18.7178 13.9618 18.5397 13.3529 18.2045 12.8291C17.8693 12.3054 17.391 11.8886 16.8264 11.6282C16.802 11.6168 16.7813 11.5988 16.7669 11.5761C16.7524 11.5535 16.7448 11.5271 16.7448 11.5003C16.7448 11.4734 16.7524 11.4471 16.7669 11.4244C16.7813 11.4017 16.802 11.3837 16.8264 11.3723C17.391 11.1125 17.8693 10.6963 18.2046 10.1729C18.5398 9.64944 18.7179 9.04087 18.7177 8.41931V5.65518C18.7248 4.78453 18.3874 3.94638 17.7792 3.32337C17.171 2.70036 16.3412 2.34299 15.4706 2.32914C14.9669 2.32691 14.4695 2.442 14.018 2.66528C13.5664 2.88856 13.1731 3.21391 12.8691 3.61556C12.8513 3.63899 12.8266 3.65628 12.7986 3.66501C12.7705 3.67374 12.7404 3.67348 12.7124 3.66425C12.6845 3.65503 12.6602 3.63732 12.6428 3.61358C12.6254 3.58985 12.6159 3.56128 12.6156 3.53187V3.29276C12.6251 2.42903 12.2911 1.5969 11.6871 0.979423C11.388 0.673681 11.0316 0.42984 10.6383 0.261825C10.245 0.0938087 9.82245 0.00490784 9.39477 0.000197761C8.53104 -0.00931468 7.69891 0.324678 7.08144 0.9287C6.46396 1.53272 6.11172 2.3573 6.10221 3.22103V3.53187C6.10188 3.56128 6.09237 3.58985 6.07501 3.61358C6.05765 3.63732 6.0333 3.65503 6.00538 3.66425C5.97745 3.67348 5.94734 3.67374 5.91926 3.66501C5.89118 3.65628 5.86653 3.63899 5.84875 3.61556C5.54486 3.21377 5.15153 2.88832 4.69996 2.66503C4.24838 2.44173 3.75098 2.32673 3.24722 2.32914C2.37685 2.34362 1.54741 2.70118 0.939311 3.32405C0.331216 3.94692 -0.00633363 4.78472 9.00307e-05 5.65518V8.41931C-8.92297e-05 9.04087 0.178 9.64944 0.513236 10.1729C0.848473 10.6963 1.32679 11.1125 1.89146 11.3723C1.91584 11.3837 1.93647 11.4017 1.95092 11.4244C1.96538 11.4471 1.97306 11.4734 1.97306 11.5003C1.97306 11.5271 1.96538 11.5535 1.95092 11.5761C1.93647 11.5988 1.91584 11.6168 1.89146 11.6282C1.32678 11.8886 0.848541 12.3054 0.513347 12.8291C0.178152 13.3529 3.92009e-05 13.9618 9.00307e-05 14.5836ZM6.51109 8.41931V8.11324C6.51092 8.08363 6.52007 8.05472 6.53725 8.0306C6.55443 8.00648 6.57876 7.98838 6.6068 7.97886C6.63483 7.96934 6.66516 7.96888 6.69347 7.97755C6.72178 7.98622 6.74665 8.00358 6.76455 8.02716C7.0683 8.42747 7.46056 8.75205 7.91064 8.97552C8.36072 9.19898 8.85641 9.31526 9.35891 9.31526C9.86141 9.31526 10.3571 9.19898 10.8072 8.97552C11.2573 8.75205 11.6495 8.42747 11.9533 8.02716C11.9712 8.00358 11.996 7.98622 12.0243 7.97755C12.0527 7.96888 12.083 7.96934 12.111 7.97886C12.1391 7.98838 12.1634 8.00648 12.1806 8.0306C12.1977 8.05472 12.2069 8.08363 12.2067 8.11324V8.41931C12.2074 9.04191 12.3869 9.65122 12.7239 10.1747C13.0609 10.6983 13.5412 11.1139 14.1077 11.3723C14.132 11.3837 14.1527 11.4017 14.1671 11.4244C14.1816 11.4471 14.1893 11.4734 14.1893 11.5003C14.1893 11.5271 14.1816 11.5535 14.1671 11.5761C14.1527 11.5988 14.132 11.6168 14.1077 11.6282C13.543 11.8886 13.0647 12.3054 12.7295 12.8291C12.3944 13.3529 12.2162 13.9618 12.2163 14.5836V14.8897C12.2165 14.9193 12.2073 14.9482 12.1901 14.9723C12.1729 14.9964 12.1486 15.0145 12.1206 15.024C12.0925 15.0336 12.0622 15.034 12.0339 15.0254C12.0056 15.0167 11.9807 14.9993 11.9628 14.9757C11.6591 14.5754 11.2668 14.2508 10.8167 14.0274C10.3667 13.8039 9.87097 13.6876 9.36847 13.6876C8.86597 13.6876 8.37029 13.8039 7.92021 14.0274C7.47013 14.2508 7.07786 14.5754 6.77411 14.9757C6.75621 14.9993 6.73135 15.0167 6.70303 15.0254C6.67472 15.034 6.6444 15.0336 6.61636 15.024C6.58832 15.0145 6.56399 14.9964 6.54682 14.9723C6.52964 14.9482 6.52049 14.9193 6.52066 14.8897V14.5836C6.52071 13.9618 6.34259 13.3529 6.0074 12.8291C5.6722 12.3054 5.19396 11.8886 4.62929 11.6282C4.60491 11.6168 4.58428 11.5988 4.56982 11.5761C4.55537 11.5535 4.54769 11.5271 4.54769 11.5003C4.54769 11.4734 4.55537 11.4471 4.56982 11.4244C4.58428 11.4017 4.60491 11.3837 4.62929 11.3723C5.19217 11.1112 5.6685 10.6943 6.00197 10.171C6.33545 9.64767 6.51211 9.03983 6.51109 8.41931Z" fill="#F77500"/>
</svg>
